<svg xmlns="http://www.w3.org/2000/svg" viewBox="0 0 26 26.38"><defs><style>.a{fill:#fff;}</style></defs><title>alerts</title><path class="a" d="M13,0a2,2,0,0,0-1.29.47L8.27,3.38h9.46L14.29.47A2,2,0,0,0,13,0Z"/><polygon class="a" points="24 8.69 24 24.38 2 24.38 2 8.69 0 10.38 0 26.38 26 26.38 26 10.38 24 8.69 24 8.69"/><path class="a" d="M22,4.38v7.9L13,18,4,12.28V4.38H22m2-2H2v11l9.93,6.32a2,2,0,0,0,2.15,0L24,13.38v-11Z"/><polygon class="a" points="17.4 8.08 16.17 6.8 12.07 10.69 10.38 9 9.1 10.34 12.07 13.15 17.4 8.08"/></svg>