<svg xmlns="http://www.w3.org/2000/svg" viewBox="0 0 30.83 32.52"><defs><style>.a{fill:#fff;}</style></defs><title>alerts</title><path class="a" d="M15.42,5a4.78,4.78,0,1,1-4.78,4.78A4.78,4.78,0,0,1,15.42,5m0-1.69a6.47,6.47,0,1,0,6.47,6.47,6.48,6.48,0,0,0-6.47-6.47Z"/><path class="a" d="M25.92,1.69V13.37l-10.5,6.77L4.94,13.39V1.69h21M27.61,0H3.26V14.31l.77.5L14.5,21.56l.92.59.92-.59,10.5-6.77.77-.5V0Z"/><polygon class="a" points="14.67 12.7 12.26 10.42 13.3 9.34 14.67 10.71 17.99 7.55 18.99 8.59 14.67 12.7"/><path class="a" d="M29.14,13.31V30.83H1.69V13.31L14.5,21.56l.92.59.92-.59,12.81-8.26m1.69-3.1L15.42,20.14,0,10.21V32.52H30.83V10.21Z"/></svg>