<svg xmlns="http://www.w3.org/2000/svg" viewBox="0 0 30.12 48.12"><defs><style>.a{fill:#fff;}</style></defs><title>mobile</title><path class="a" d="M26.94,48.12H3.18A3.19,3.19,0,0,1,0,44.94V3.18A3.19,3.19,0,0,1,3.18,0H26.94a3.19,3.19,0,0,1,3.18,3.18V44.94A3.19,3.19,0,0,1,26.94,48.12ZM3.18,2.12A1.06,1.06,0,0,0,2.12,3.18V44.94A1.06,1.06,0,0,0,3.18,46H26.94A1.06,1.06,0,0,0,28,44.94V3.18a1.06,1.06,0,0,0-1.06-1.06Z"/><rect class="a" x="0.06" y="6.06" width="30" height="2"/><rect class="a" x="0.06" y="38.06" width="30" height="2"/><rect class="a" x="12.06" y="42.06" width="6" height="2" rx="1" ry="1"/></svg>