<svg xmlns="http://www.w3.org/2000/svg" viewBox="0 0 26 25"><defs><style>.a{fill:#fff;}</style></defs><title>tv</title><path class="a" d="M13,5.07A10.34,10.34,0,0,0,6.69,7.21.87.87,0,1,0,7.75,8.58a8.62,8.62,0,0,1,10.49,0,.87.87,0,1,0,1.07-1.37A10.34,10.34,0,0,0,13,5.07Zm0,2.6a7.31,7.31,0,0,0-4.68,1.6.87.87,0,1,0,1.1,1.34A5.56,5.56,0,0,1,13,9.4a5.56,5.56,0,0,1,3.57,1.2.87.87,0,1,0,1.1-1.34A7.31,7.31,0,0,0,13,7.67Zm0,2.58a4.81,4.81,0,0,0-3,1,.87.87,0,1,0,1.09,1.35,3.23,3.23,0,0,1,3.86,0A.87.87,0,1,0,16,11.28,4.81,4.81,0,0,0,13,10.25ZM13,13a1,1,0,0,0-1,1,1,1,0,1,0,1-1Z"/><path class="a" d="M23.9,2.1V18.9H2.1V2.1H23.9M24,0H2A2,2,0,0,0,0,2V19a2,2,0,0,0,2,2H24a2,2,0,0,0,2-2V2a2,2,0,0,0-2-2Z"/><rect class="a" x="11" y="21" width="4" height="4" rx="1" ry="1"/><path class="a" d="M0,18H26a0,0,0,0,1,0,0v3a1,1,0,0,1-1,1H1a1,1,0,0,1-1-1V18A0,0,0,0,1,0,18Z"/><rect class="a" x="8" y="23" width="10" height="2"/></svg>