<?xml version="1.0" encoding="utf-8"?>
<!-- Generator: Adobe Illustrator 21.1.0, SVG Export Plug-In . SVG Version: 6.00 Build 0)  -->
<svg version="1.1" id="Layer_1" xmlns="http://www.w3.org/2000/svg" xmlns:xlink="http://www.w3.org/1999/xlink" x="0px" y="0px"
	 viewBox="0 0 40 40" style="enable-background:new 0 0 40 40;" xml:space="preserve">
<style type="text/css">
	.st0{display:none;}
	.st1{display:inline;}
	.st2{fill:none;stroke:#000000;stroke-width:0.1;stroke-miterlimit:10;}
</style>
<g class="st0">
	<g class="st1">
		<rect x="-82" y="-82" class="st2" width="512" height="512"/>
		<line class="st2" x1="-82" y1="414" x2="430" y2="414"/>
		<line class="st2" x1="-82" y1="398" x2="430" y2="398"/>
		<line class="st2" x1="-82" y1="382" x2="430" y2="382"/>
		<line class="st2" x1="-82" y1="366" x2="430" y2="366"/>
		<line class="st2" x1="-82" y1="350" x2="430" y2="350"/>
		<line class="st2" x1="-82" y1="334" x2="430" y2="334"/>
		<line class="st2" x1="-82" y1="318" x2="430" y2="318"/>
		<line class="st2" x1="-82" y1="302" x2="430" y2="302"/>
		<line class="st2" x1="-82" y1="286" x2="430" y2="286"/>
		<line class="st2" x1="-82" y1="270" x2="430" y2="270"/>
		<line class="st2" x1="-82" y1="254" x2="430" y2="254"/>
		<line class="st2" x1="-82" y1="238" x2="430" y2="238"/>
		<line class="st2" x1="-82" y1="222" x2="430" y2="222"/>
		<line class="st2" x1="-82" y1="206" x2="430" y2="206"/>
		<line class="st2" x1="-82" y1="190" x2="430" y2="190"/>
		<line class="st2" x1="-82" y1="174" x2="430" y2="174"/>
		<line class="st2" x1="-82" y1="158" x2="430" y2="158"/>
		<line class="st2" x1="-82" y1="142" x2="430" y2="142"/>
		<line class="st2" x1="-82" y1="126" x2="430" y2="126"/>
		<line class="st2" x1="-82" y1="110" x2="430" y2="110"/>
		<line class="st2" x1="-82" y1="94" x2="430" y2="94"/>
		<line class="st2" x1="-82" y1="78" x2="430" y2="78"/>
		<line class="st2" x1="-82" y1="62" x2="430" y2="62"/>
		<line class="st2" x1="-82" y1="46" x2="430" y2="46"/>
		<line class="st2" x1="-82" y1="30" x2="430" y2="30"/>
		<line class="st2" x1="-82" y1="14" x2="430" y2="14"/>
		<line class="st2" x1="-82" y1="-2" x2="430" y2="-2"/>
		<line class="st2" x1="-82" y1="-18" x2="430" y2="-18"/>
		<line class="st2" x1="-82" y1="-34" x2="430" y2="-34"/>
		<line class="st2" x1="-82" y1="-50" x2="430" y2="-50"/>
		<line class="st2" x1="-82" y1="-66" x2="430" y2="-66"/>
		<line class="st2" x1="414" y1="-82" x2="414" y2="430"/>
		<line class="st2" x1="398" y1="-82" x2="398" y2="430"/>
		<line class="st2" x1="382" y1="-82" x2="382" y2="430"/>
		<line class="st2" x1="366" y1="-82" x2="366" y2="430"/>
		<line class="st2" x1="350" y1="-82" x2="350" y2="430"/>
		<line class="st2" x1="334" y1="-82" x2="334" y2="430"/>
		<line class="st2" x1="318" y1="-82" x2="318" y2="430"/>
		<line class="st2" x1="302" y1="-82" x2="302" y2="430"/>
		<line class="st2" x1="286" y1="-82" x2="286" y2="430"/>
		<line class="st2" x1="270" y1="-82" x2="270" y2="430"/>
		<line class="st2" x1="254" y1="-82" x2="254" y2="430"/>
		<line class="st2" x1="238" y1="-82" x2="238" y2="430"/>
		<line class="st2" x1="222" y1="-82" x2="222" y2="430"/>
		<line class="st2" x1="206" y1="-82" x2="206" y2="430"/>
		<line class="st2" x1="190" y1="-82" x2="190" y2="430"/>
		<line class="st2" x1="174" y1="-82" x2="174" y2="430"/>
		<line class="st2" x1="158" y1="-82" x2="158" y2="430"/>
		<line class="st2" x1="142" y1="-82" x2="142" y2="430"/>
		<line class="st2" x1="126" y1="-82" x2="126" y2="430"/>
		<line class="st2" x1="110" y1="-82" x2="110" y2="430"/>
		<line class="st2" x1="94" y1="-82" x2="94" y2="430"/>
		<line class="st2" x1="78" y1="-82" x2="78" y2="430"/>
		<line class="st2" x1="62" y1="-82" x2="62" y2="430"/>
		<line class="st2" x1="46" y1="-82" x2="46" y2="430"/>
		<line class="st2" x1="30" y1="-82" x2="30" y2="430"/>
		<line class="st2" x1="14" y1="-82" x2="14" y2="430"/>
		<line class="st2" x1="-2" y1="-82" x2="-2" y2="430"/>
		<line class="st2" x1="-18" y1="-82" x2="-18" y2="430"/>
		<line class="st2" x1="-34" y1="-82" x2="-34" y2="430"/>
		<line class="st2" x1="-50" y1="-82" x2="-50" y2="430"/>
		<line class="st2" x1="-66" y1="-82" x2="-66" y2="430"/>
	</g>
</g>
<g>
	<g>
		<g>
			<g>
				<circle cx="20" cy="14.7" r="8.3"/>
				<path d="M20,0C9,0,0,8.9,0,20c0,11,8.9,20,20,20s20-8.9,20-20C40,9,31,0,20,0z M33.5,32.4v-0.6c0-3.9-3.2-7.1-7.1-7.1h-13
					c-3.9,0-7.1,3.2-7.1,7.1v0.5c-3-3.3-4.8-7.6-4.8-12.3C1.6,9.9,9.8,1.7,20,1.7S38.3,9.9,38.3,20C38.3,24.8,36.5,29.2,33.5,32.4z"
					/>
			</g>
		</g>
	</g>
</g>
</svg>
